# xmcd
#
# Track frame offsets:
#	150
#	14154
#	27416
#	40096
#	52586
#	63071
#	76439
#	89773
#	103030
#	114952
#	126522
#	139358
#	151049
#	160905
#	174306
#	186650
#	199890
#	214357
#	225332
#	238374
#	249018
#	263513
#	273323
#	286039
#	303233
#
# Disc length: 4212 seconds
#
# Revision: 1
# Processed by: cddbd v1.5.2PL0 Copyright (c) Steve Scherf et al.
# Submitted via: audiograbber 1.83.01
#
DISCID=58107219
DTITLE=Patti Page - Reflections Disc2
DYEAR=1900
DGENRE=
TTITLE0=The Tennessee Waltz
TTITLE1=Would I love you (Love you, Love you)
TTITLE2=Why don't you believe me
TTITLE3=Butterflies
TTITLE4=I can't tell a waltz from a tango
TTITLE5=Go on with the Wedding
TTITLE6=I got it bad and that ain't good
TTITLE7=Down the train of achin' hearts
TTITLE8=You go to my head
TTITLE9=Ever true evermore
TTITLE10=I thought about you
TTITLE11=Cross over the bridge
TTITLE12=Every time (I feel his spirit)
TTITLE13=I let a song go out of my heart
TTITLE14=The Mama Doll Song
TTITLE15=Long, long ago
TTITLE16=Red sails in the sunset
TTITLE17=Let me go, lover
TTITLE18=Release me (Duet with Rusty Draper)
TTITLE19=These things I offer you
TTITLE20=Moon over Miami
TTITLE21=Retreat (Cries my heart)
TTITLE22=Too young to go steady
TTITLE23=Married I can always get
TTITLE24=You belong to me
EXTD=
EXTT0=
EXTT1=
EXTT2=
EXTT3=
EXTT4=
EXTT5=
EXTT6=
EXTT7=
EXTT8=
EXTT9=
EXTT10=
EXTT11=
EXTT12=
EXTT13=
EXTT14=
EXTT15=
EXTT16=
EXTT17=
EXTT18=
EXTT19=
EXTT20=
EXTT21=
EXTT22=
EXTT23=
EXTT24=
PLAYORDER=
